<?xml version="1.0" encoding="UTF-8" standalone="no"?>
<!DOCTYPE svg PUBLIC "-//W3C//DTD SVG 1.1//EN"
 "http://www.w3.org/Graphics/SVG/1.1/DTD/svg11.dtd">
<!-- Generated by graphviz version 2.42.4 (0)
 -->
<!-- Title: G Pages: 1 -->
<svg width="1409pt" height="288pt"
 viewBox="0.00 0.00 1409.00 288.00" xmlns="http://www.w3.org/2000/svg" xmlns:xlink="http://www.w3.org/1999/xlink">
<g id="graph0" class="graph" transform="scale(1 1) rotate(0) translate(18 270)">
<title>G</title>
<polygon fill="white" stroke="transparent" points="-18,18 -18,-270 1391,-270 1391,18 -18,18"/>
<!-- R -->
<g id="node1" class="node">
<title>R</title>
<path fill="none" stroke="#334155" d="M144.5,-252C144.5,-252 42.5,-252 42.5,-252 36.5,-252 30.5,-246 30.5,-240 30.5,-240 30.5,-228 30.5,-228 30.5,-222 36.5,-216 42.5,-216 42.5,-216 144.5,-216 144.5,-216 150.5,-216 156.5,-222 156.5,-228 156.5,-228 156.5,-240 156.5,-240 156.5,-246 150.5,-252 144.5,-252"/>
<text text-anchor="middle" x="93.5" y="-230.9" font-family="Helvetica,sans-Serif" font-size="12.00">PRD Requirement</text>
</g>
<!-- D -->
<g id="node2" class="node">
<title>D</title>
<path fill="none" stroke="#334155" d="M463,-232C463,-232 293,-232 293,-232 287,-232 281,-226 281,-220 281,-220 281,-208 281,-208 281,-202 287,-196 293,-196 293,-196 463,-196 463,-196 469,-196 475,-202 475,-208 475,-208 475,-220 475,-220 475,-226 469,-232 463,-232"/>
<text text-anchor="middle" x="378" y="-210.9" font-family="Helvetica,sans-Serif" font-size="12.00">Architecture Intent / Decision</text>
</g>
<!-- R&#45;&gt;D -->
<g id="edge1" class="edge">
<title>R&#45;&gt;D</title>
<path fill="none" stroke="#475569" stroke-width="1.2" d="M156.64,-224C156.64,-224 272.93,-224 272.93,-224"/>
<polygon fill="#475569" stroke="#475569" stroke-width="1.2" points="272.93,-226.8 280.93,-224 272.93,-221.2 272.93,-226.8"/>
</g>
<!-- P -->
<g id="node3" class="node">
<title>P</title>
<path fill="none" stroke="#334155" d="M679,-232C679,-232 581,-232 581,-232 575,-232 569,-226 569,-220 569,-220 569,-208 569,-208 569,-202 575,-196 581,-196 581,-196 679,-196 679,-196 685,-196 691,-202 691,-208 691,-208 691,-220 691,-220 691,-226 685,-232 679,-232"/>
<text text-anchor="middle" x="630" y="-210.9" font-family="Helvetica,sans-Serif" font-size="12.00">Pattern Selection</text>
</g>
<!-- D&#45;&gt;P -->
<g id="edge2" class="edge">
<title>D&#45;&gt;P</title>
<path fill="none" stroke="#475569" stroke-width="1.2" d="M475.07,-214C475.07,-214 560.68,-214 560.68,-214"/>
<polygon fill="#475569" stroke="#475569" stroke-width="1.2" points="560.68,-216.8 568.68,-214 560.68,-211.2 560.68,-216.8"/>
</g>
<!-- O -->
<g id="node4" class="node">
<title>O</title>
<path fill="none" stroke="#334155" d="M939,-166C939,-166 797,-166 797,-166 791,-166 785,-160 785,-154 785,-154 785,-142 785,-142 785,-136 791,-130 797,-130 797,-130 939,-130 939,-130 945,-130 951,-136 951,-142 951,-142 951,-154 951,-154 951,-160 945,-166 939,-166"/>
<text text-anchor="middle" x="868" y="-144.9" font-family="Helvetica,sans-Serif" font-size="12.00">Obligations / Constraints</text>
</g>
<!-- P&#45;&gt;O -->
<g id="edge3" class="edge">
<title>P&#45;&gt;O</title>
<path fill="none" stroke="#475569" stroke-width="1.2" d="M630,-195.88C630,-178.43 630,-154.67 630,-154.67 630,-154.67 776.76,-154.67 776.76,-154.67"/>
<polygon fill="#475569" stroke="#475569" stroke-width="1.2" points="776.76,-157.47 784.76,-154.67 776.76,-151.87 776.76,-157.47"/>
</g>
<!-- T -->
<g id="node5" class="node">
<title>T</title>
<path fill="none" stroke="#334155" d="M1144,-99C1144,-99 1022,-99 1022,-99 1016,-99 1010,-93 1010,-87 1010,-87 1010,-75 1010,-75 1010,-69 1016,-63 1022,-63 1022,-63 1144,-63 1144,-63 1150,-63 1156,-69 1156,-75 1156,-75 1156,-87 1156,-87 1156,-93 1150,-99 1144,-99"/>
<text text-anchor="middle" x="1083" y="-77.9" font-family="Helvetica,sans-Serif" font-size="12.00">Planned Work / Tasks</text>
</g>
<!-- O&#45;&gt;T -->
<g id="edge4" class="edge">
<title>O&#45;&gt;T</title>
<path fill="none" stroke="#475569" stroke-width="1.2" d="M951.27,-148C1020.58,-148 1108,-148 1108,-148 1108,-148 1108,-107.31 1108,-107.31"/>
<polygon fill="#475569" stroke="#475569" stroke-width="1.2" points="1110.8,-107.31 1108,-99.31 1105.2,-107.31 1110.8,-107.31"/>
</g>
<!-- C -->
<g id="node6" class="node">
<title>C</title>
<path fill="none" stroke="#334155" d="M1361,-37C1361,-37 1227,-37 1227,-37 1221,-37 1215,-31 1215,-25 1215,-25 1215,-13 1215,-13 1215,-7 1221,-1 1227,-1 1227,-1 1361,-1 1361,-1 1367,-1 1373,-7 1373,-13 1373,-13 1373,-25 1373,-25 1373,-31 1367,-37 1361,-37"/>
<text text-anchor="middle" x="1294" y="-15.9" font-family="Helvetica,sans-Serif" font-size="12.00">Implementation / Code</text>
</g>
<!-- T&#45;&gt;C -->
<g id="edge5" class="edge">
<title>T&#45;&gt;C</title>
<path fill="none" stroke="#475569" stroke-width="1.2" d="M1083,-62.73C1083,-44.44 1083,-19 1083,-19 1083,-19 1206.83,-19 1206.83,-19"/>
<polygon fill="#475569" stroke="#475569" stroke-width="1.2" points="1206.83,-21.8 1214.83,-19 1206.83,-16.2 1206.83,-21.8"/>
</g>
<!-- Q -->
<g id="node7" class="node">
<title>Q</title>
<path fill="none" stroke="#334155" d="M175,-132C175,-132 12,-132 12,-132 6,-132 0,-126 0,-120 0,-120 0,-108 0,-108 0,-102 6,-96 12,-96 12,-96 175,-96 175,-96 181,-96 187,-102 187,-108 187,-108 187,-120 187,-120 187,-126 181,-132 175,-132"/>
<text text-anchor="middle" x="93.5" y="-110.9" font-family="Helvetica,sans-Serif" font-size="12.00">Ask / Audit / Impact Queries</text>
</g>
<!-- Q&#45;&gt;D -->
<g id="edge6" class="edge">
<title>Q&#45;&gt;D</title>
<path fill="none" stroke="#475569" stroke-width="1.2" stroke-dasharray="5,2" d="M177,-132.18C177,-158.99 177,-206 177,-206 177,-206 272.74,-206 272.74,-206"/>
<polygon fill="#475569" stroke="#475569" stroke-width="1.2" points="272.74,-208.8 280.74,-206 272.74,-203.2 272.74,-208.8"/>
<text text-anchor="middle" x="234" y="-204" font-family="Helvetica,sans-Serif" font-size="10.00">inspect</text>
</g>
<!-- Q&#45;&gt;O -->
<g id="edge7" class="edge">
<title>Q&#45;&gt;O</title>
<path fill="none" stroke="#475569" stroke-width="1.2" stroke-dasharray="5,2" d="M167,-132.08C167,-138.11 167,-143.33 167,-143.33 167,-143.33 776.83,-143.33 776.83,-143.33"/>
<polygon fill="#475569" stroke="#475569" stroke-width="1.2" points="776.83,-146.13 784.83,-143.33 776.83,-140.53 776.83,-146.13"/>
<text text-anchor="middle" x="522" y="-150" font-family="Helvetica,sans-Serif" font-size="10.00">inspect</text>
</g>
<!-- Q&#45;&gt;T -->
<g id="edge8" class="edge">
<title>Q&#45;&gt;T</title>
<path fill="none" stroke="#475569" stroke-width="1.2" stroke-dasharray="5,2" d="M187.39,-109.33C430.02,-109.33 1059,-109.33 1059,-109.33 1059,-109.33 1059,-107.1 1059,-107.1"/>
<polygon fill="#475569" stroke="#475569" stroke-width="1.2" points="1061.8,-107.1 1059,-99.1 1056.2,-107.1 1061.8,-107.1"/>
<text text-anchor="middle" x="630" y="-84" font-family="Helvetica,sans-Serif" font-size="10.00">inspect</text>
</g>
<!-- Q&#45;&gt;C -->
<g id="edge9" class="edge">
<title>Q&#45;&gt;C</title>
<path fill="none" stroke="#475569" stroke-width="1.2" stroke-dasharray="5,2" d="M187.28,-119.67C470.05,-119.67 1295,-119.67 1295,-119.67 1295,-119.67 1295,-45.46 1295,-45.46"/>
<polygon fill="#475569" stroke="#475569" stroke-width="1.2" points="1297.8,-45.46 1295,-37.46 1292.2,-45.46 1297.8,-45.46"/>
<text text-anchor="middle" x="738" y="-3" font-family="Helvetica,sans-Serif" font-size="10.00">inspect</text>
</g>
</g>
</svg>
