<?xml version="1.0" encoding="UTF-8" standalone="no"?>
<!DOCTYPE svg PUBLIC "-//W3C//DTD SVG 1.1//EN"
 "http://www.w3.org/Graphics/SVG/1.1/DTD/svg11.dtd">
<!-- Generated by graphviz version 2.42.4 (0)
 -->
<!-- Title: G Pages: 1 -->
<svg width="1286pt" height="197pt"
 viewBox="0.00 0.00 1286.24 197.00" xmlns="http://www.w3.org/2000/svg" xmlns:xlink="http://www.w3.org/1999/xlink">
<g id="graph0" class="graph" transform="scale(1 1) rotate(0) translate(18 179)">
<title>G</title>
<polygon fill="white" stroke="transparent" points="-18,18 -18,-179 1268.24,-179 1268.24,18 -18,18"/>
<!-- RA -->
<g id="node1" class="node">
<title>RA</title>
<path fill="none" stroke="#334155" d="M146,-140C146,-140 12,-140 12,-140 6,-140 0,-134 0,-128 0,-128 0,-116 0,-116 0,-110 6,-104 12,-104 12,-104 146,-104 146,-104 152,-104 158,-110 158,-116 158,-116 158,-128 158,-128 158,-134 152,-140 146,-140"/>
<text text-anchor="middle" x="79" y="-118.9" font-family="Helvetica,sans-Serif" font-size="12.00">Reference Architecture</text>
</g>
<!-- O -->
<g id="node2" class="node">
<title>O</title>
<path fill="none" stroke="#334155" d="M402.5,-140C402.5,-140 262.5,-140 262.5,-140 256.5,-140 250.5,-134 250.5,-128 250.5,-128 250.5,-116 250.5,-116 250.5,-110 256.5,-104 262.5,-104 262.5,-104 402.5,-104 402.5,-104 408.5,-104 414.5,-110 414.5,-116 414.5,-116 414.5,-128 414.5,-128 414.5,-134 408.5,-140 402.5,-140"/>
<text text-anchor="middle" x="332.5" y="-118.9" font-family="Helvetica,sans-Serif" font-size="12.00">Architecture Obligations</text>
</g>
<!-- RA&#45;&gt;O -->
<g id="edge1" class="edge">
<title>RA&#45;&gt;O</title>
<path fill="none" stroke="#475569" stroke-width="1.2" d="M158.17,-122C158.17,-122 242.44,-122 242.44,-122"/>
<polygon fill="#475569" stroke="#475569" stroke-width="1.2" points="242.44,-124.8 250.44,-122 242.44,-119.2 242.44,-124.8"/>
</g>
<!-- G -->
<g id="node4" class="node">
<title>G</title>
<polygon fill="none" stroke="#334155" points="597.12,-100 506.88,-71 597.12,-42 687.36,-71 597.12,-100"/>
<text text-anchor="middle" x="597.12" y="-67.9" font-family="Helvetica,sans-Serif" font-size="12.00">Gate Evaluation</text>
</g>
<!-- O&#45;&gt;G -->
<g id="edge3" class="edge">
<title>O&#45;&gt;G</title>
<path fill="none" stroke="#475569" stroke-width="1.2" d="M333.24,-103.89C333.24,-94.1 333.24,-84 333.24,-84 333.24,-84 539.17,-84 539.17,-84"/>
<polygon fill="#475569" stroke="#475569" stroke-width="1.2" points="539.17,-86.8 547.17,-84 539.17,-81.2 539.17,-86.8"/>
</g>
<!-- CH -->
<g id="node3" class="node">
<title>CH</title>
<path fill="none" stroke="#334155" d="M436,-68C436,-68 229,-68 229,-68 223,-68 217,-62 217,-56 217,-56 217,-44 217,-44 217,-38 223,-32 229,-32 229,-32 436,-32 436,-32 442,-32 448,-38 448,-44 448,-44 448,-56 448,-56 448,-62 442,-68 436,-68"/>
<text text-anchor="middle" x="332.5" y="-46.9" font-family="Helvetica,sans-Serif" font-size="12.00">Proposed Change / Implementation</text>
</g>
<!-- CH&#45;&gt;G -->
<g id="edge2" class="edge">
<title>CH&#45;&gt;G</title>
<path fill="none" stroke="#475569" stroke-width="1.2" d="M448.18,-55C448.18,-55 548.45,-55 548.45,-55"/>
<polygon fill="#475569" stroke="#475569" stroke-width="1.2" points="548.45,-57.8 556.45,-55 548.45,-52.2 548.45,-57.8"/>
</g>
<!-- OK -->
<g id="node5" class="node">
<title>OK</title>
<path fill="none" stroke="#334155" d="M825.24,-161C825.24,-161 780.24,-161 780.24,-161 774.24,-161 768.24,-155 768.24,-149 768.24,-149 768.24,-137 768.24,-137 768.24,-131 774.24,-125 780.24,-125 780.24,-125 825.24,-125 825.24,-125 831.24,-125 837.24,-131 837.24,-137 837.24,-137 837.24,-149 837.24,-149 837.24,-155 831.24,-161 825.24,-161"/>
<text text-anchor="middle" x="802.74" y="-139.9" font-family="Helvetica,sans-Serif" font-size="12.00">Proceed</text>
</g>
<!-- G&#45;&gt;OK -->
<g id="edge4" class="edge">
<title>G&#45;&gt;OK</title>
<path fill="none" stroke="#475569" stroke-width="1.2" d="M614.34,-94.5C663.88,-94.5 803.24,-94.5 803.24,-94.5 803.24,-94.5 803.24,-116.94 803.24,-116.94"/>
<polygon fill="#475569" stroke="#475569" stroke-width="1.2" points="800.44,-116.94 803.24,-124.94 806.04,-116.94 800.44,-116.94"/>
<text text-anchor="middle" x="727.74" y="-146" font-family="Helvetica,sans-Serif" font-size="10.00">pass</text>
</g>
<!-- BLK -->
<g id="node6" class="node">
<title>BLK</title>
<path fill="none" stroke="#334155" d="M824.74,-89C824.74,-89 780.74,-89 780.74,-89 774.74,-89 768.74,-83 768.74,-77 768.74,-77 768.74,-65 768.74,-65 768.74,-59 774.74,-53 780.74,-53 780.74,-53 824.74,-53 824.74,-53 830.74,-53 836.74,-59 836.74,-65 836.74,-65 836.74,-77 836.74,-77 836.74,-83 830.74,-89 824.74,-89"/>
<text text-anchor="middle" x="802.74" y="-67.9" font-family="Helvetica,sans-Serif" font-size="12.00">Blocked</text>
</g>
<!-- G&#45;&gt;BLK -->
<g id="edge5" class="edge">
<title>G&#45;&gt;BLK</title>
<path fill="none" stroke="#475569" stroke-width="1.2" d="M687.31,-71C687.31,-71 760.53,-71 760.53,-71"/>
<polygon fill="#475569" stroke="#475569" stroke-width="1.2" points="760.53,-73.8 768.53,-71 760.53,-68.2 760.53,-73.8"/>
<text text-anchor="middle" x="727.74" y="-74" font-family="Helvetica,sans-Serif" font-size="10.00">fail</text>
</g>
<!-- AU -->
<g id="node7" class="node">
<title>AU</title>
<path fill="none" stroke="#334155" d="M1022.24,-89C1022.24,-89 908.24,-89 908.24,-89 902.24,-89 896.24,-83 896.24,-77 896.24,-77 896.24,-65 896.24,-65 896.24,-59 902.24,-53 908.24,-53 908.24,-53 1022.24,-53 1022.24,-53 1028.24,-53 1034.24,-59 1034.24,-65 1034.24,-65 1034.24,-77 1034.24,-77 1034.24,-83 1028.24,-89 1022.24,-89"/>
<text text-anchor="middle" x="965.24" y="-67.9" font-family="Helvetica,sans-Serif" font-size="12.00">Audit / Remediation</text>
</g>
<!-- BLK&#45;&gt;AU -->
<g id="edge6" class="edge">
<title>BLK&#45;&gt;AU</title>
<path fill="none" stroke="#475569" stroke-width="1.2" d="M836.8,-71C836.8,-71 888.06,-71 888.06,-71"/>
<polygon fill="#475569" stroke="#475569" stroke-width="1.2" points="888.06,-73.8 896.06,-71 888.06,-68.2 888.06,-73.8"/>
</g>
<!-- FIX -->
<g id="node8" class="node">
<title>FIX</title>
<path fill="none" stroke="#334155" d="M1238.24,-38C1238.24,-38 1105.24,-38 1105.24,-38 1099.24,-38 1093.24,-32 1093.24,-26 1093.24,-26 1093.24,-12 1093.24,-12 1093.24,-6 1099.24,0 1105.24,0 1105.24,0 1238.24,0 1238.24,0 1244.24,0 1250.24,-6 1250.24,-12 1250.24,-12 1250.24,-26 1250.24,-26 1250.24,-32 1244.24,-38 1238.24,-38"/>
<text text-anchor="middle" x="1171.74" y="-22.4" font-family="Helvetica,sans-Serif" font-size="12.00">Correct Change</text>
<text text-anchor="middle" x="1171.74" y="-9.4" font-family="Helvetica,sans-Serif" font-size="12.00">or Update Architecture</text>
</g>
<!-- AU&#45;&gt;FIX -->
<g id="edge7" class="edge">
<title>AU&#45;&gt;FIX</title>
<path fill="none" stroke="#475569" stroke-width="1.2" d="M965.24,-52.99C965.24,-36.95 965.24,-16 965.24,-16 965.24,-16 1085.08,-16 1085.08,-16"/>
<polygon fill="#475569" stroke="#475569" stroke-width="1.2" points="1085.08,-18.8 1093.08,-16 1085.08,-13.2 1085.08,-18.8"/>
</g>
<!-- FIX&#45;&gt;G -->
<g id="edge8" class="edge">
<title>FIX&#45;&gt;G</title>
<path fill="none" stroke="#475569" stroke-width="1.2" d="M1172.24,-38.17C1172.24,-43.32 1172.24,-47.5 1172.24,-47.5 1172.24,-47.5 622.33,-47.5 622.33,-47.5"/>
<polygon fill="#475569" stroke="#475569" stroke-width="1.2" points="622.33,-44.7 614.33,-47.5 622.33,-50.3 622.33,-44.7"/>
</g>
</g>
</svg>
