<?xml version="1.0" encoding="UTF-8" standalone="no"?>
<!DOCTYPE svg PUBLIC "-//W3C//DTD SVG 1.1//EN"
 "http://www.w3.org/Graphics/SVG/1.1/DTD/svg11.dtd">
<!-- Generated by graphviz version 2.42.4 (0)
 -->
<!-- Title: G Pages: 1 -->
<svg width="1081pt" height="307pt"
 viewBox="0.00 0.00 1081.00 307.00" xmlns="http://www.w3.org/2000/svg" xmlns:xlink="http://www.w3.org/1999/xlink">
<g id="graph0" class="graph" transform="scale(1 1) rotate(0) translate(18 289)">
<title>G</title>
<polygon fill="white" stroke="transparent" points="-18,18 -18,-289 1063,-289 1063,18 -18,18"/>
<g id="clust1" class="cluster">
<title>cluster_caf</title>
<path fill="white" stroke="#cbd5e1" d="M346,-188C346,-188 749,-188 749,-188 755,-188 761,-194 761,-200 761,-200 761,-251 761,-251 761,-257 755,-263 749,-263 749,-263 346,-263 346,-263 340,-263 334,-257 334,-251 334,-251 334,-200 334,-200 334,-194 340,-188 346,-188"/>
<text text-anchor="middle" x="547.5" y="-247.8" font-family="Helvetica,sans-Serif" font-size="14.00">Architecture&#45;First Progression</text>
</g>
<!-- PRD -->
<g id="node1" class="node">
<title>PRD</title>
<path fill="none" stroke="#334155" d="M129,-53C129,-53 12,-53 12,-53 6,-53 0,-47 0,-41 0,-41 0,-29 0,-29 0,-23 6,-17 12,-17 12,-17 129,-17 129,-17 135,-17 141,-23 141,-29 141,-29 141,-41 141,-41 141,-47 135,-53 129,-53"/>
<text text-anchor="middle" x="70.5" y="-31.9" font-family="Helvetica,sans-Serif" font-size="12.00">PRD / Product Intent</text>
</g>
<!-- I -->
<g id="node2" class="node">
<title>I</title>
<path fill="none" stroke="#334155" d="M279,-165C279,-165 204,-165 204,-165 198,-165 192,-159 192,-153 192,-153 192,-141 192,-141 192,-135 198,-129 204,-129 204,-129 279,-129 279,-129 285,-129 291,-135 291,-141 291,-141 291,-153 291,-153 291,-159 285,-165 279,-165"/>
<text text-anchor="middle" x="241.5" y="-143.9" font-family="Helvetica,sans-Serif" font-size="12.00">CAF Instance</text>
</g>
<!-- PRD&#45;&gt;I -->
<g id="edge3" class="edge">
<title>PRD&#45;&gt;I</title>
<path fill="none" stroke="#475569" stroke-width="1.2" d="M141.25,-44.5C188.49,-44.5 242,-44.5 242,-44.5 242,-44.5 242,-120.68 242,-120.68"/>
<polygon fill="#475569" stroke="#475569" stroke-width="1.2" points="239.2,-120.68 242,-128.68 244.8,-120.68 239.2,-120.68"/>
</g>
<!-- PRDArt -->
<g id="node6" class="node">
<title>PRDArt</title>
<path fill="none" stroke="#334155" d="M976.5,-36C976.5,-36 907.5,-36 907.5,-36 901.5,-36 895.5,-30 895.5,-24 895.5,-24 895.5,-12 895.5,-12 895.5,-6 901.5,0 907.5,0 907.5,0 976.5,0 976.5,0 982.5,0 988.5,-6 988.5,-12 988.5,-12 988.5,-24 988.5,-24 988.5,-30 982.5,-36 976.5,-36"/>
<text text-anchor="middle" x="942" y="-14.9" font-family="Helvetica,sans-Serif" font-size="12.00">PRD Artifact</text>
</g>
<!-- PRD&#45;&gt;PRDArt -->
<g id="edge5" class="edge">
<title>PRD&#45;&gt;PRDArt</title>
<path fill="none" stroke="#475569" stroke-width="1.2" stroke-dasharray="5,2" d="M141.08,-26.5C141.08,-26.5 887.4,-26.5 887.4,-26.5"/>
<polygon fill="#475569" stroke="#475569" stroke-width="1.2" points="887.4,-29.3 895.4,-26.5 887.4,-23.7 887.4,-29.3"/>
<text text-anchor="middle" x="478" y="-21" font-family="Helvetica,sans-Serif" font-size="10.00">artifact</text>
</g>
<!-- A -->
<g id="node3" class="node">
<title>A</title>
<path fill="none" stroke="#334155" d="M423,-232C423,-232 354,-232 354,-232 348,-232 342,-226 342,-220 342,-220 342,-208 342,-208 342,-202 348,-196 354,-196 354,-196 423,-196 423,-196 429,-196 435,-202 435,-208 435,-208 435,-220 435,-220 435,-226 429,-232 423,-232"/>
<text text-anchor="middle" x="388.5" y="-210.9" font-family="Helvetica,sans-Serif" font-size="12.00">Architecture</text>
</g>
<!-- I&#45;&gt;A -->
<g id="edge4" class="edge">
<title>I&#45;&gt;A</title>
<path fill="none" stroke="#475569" stroke-width="1.2" d="M291.21,-151.5C328.45,-151.5 373,-151.5 373,-151.5 373,-151.5 373,-187.92 373,-187.92"/>
<polygon fill="#475569" stroke="#475569" stroke-width="1.2" points="370.2,-187.92 373,-195.92 375.8,-187.92 370.2,-187.92"/>
</g>
<!-- P -->
<g id="node4" class="node">
<title>P</title>
<path fill="none" stroke="#334155" d="M563,-232C563,-232 533,-232 533,-232 527,-232 521,-226 521,-220 521,-220 521,-208 521,-208 521,-202 527,-196 533,-196 533,-196 563,-196 563,-196 569,-196 575,-202 575,-208 575,-208 575,-220 575,-220 575,-226 569,-232 563,-232"/>
<text text-anchor="middle" x="548" y="-210.9" font-family="Helvetica,sans-Serif" font-size="12.00">Plan</text>
</g>
<!-- A&#45;&gt;P -->
<g id="edge1" class="edge">
<title>A&#45;&gt;P</title>
<path fill="none" stroke="#475569" stroke-width="1.2" d="M435.06,-214C435.06,-214 512.6,-214 512.6,-214"/>
<polygon fill="#475569" stroke="#475569" stroke-width="1.2" points="512.6,-216.8 520.6,-214 512.6,-211.2 512.6,-216.8"/>
</g>
<!-- AArt -->
<g id="node7" class="node">
<title>AArt</title>
<path fill="none" stroke="#334155" d="M1000.5,-101C1000.5,-101 883.5,-101 883.5,-101 877.5,-101 871.5,-95 871.5,-89 871.5,-89 871.5,-77 871.5,-77 871.5,-71 877.5,-65 883.5,-65 883.5,-65 1000.5,-65 1000.5,-65 1006.5,-65 1012.5,-71 1012.5,-77 1012.5,-77 1012.5,-89 1012.5,-89 1012.5,-95 1006.5,-101 1000.5,-101"/>
<text text-anchor="middle" x="942" y="-79.9" font-family="Helvetica,sans-Serif" font-size="12.00">Architecture Artifact</text>
</g>
<!-- A&#45;&gt;AArt -->
<g id="edge6" class="edge">
<title>A&#45;&gt;AArt</title>
<path fill="none" stroke="#475569" stroke-width="1.2" stroke-dasharray="5,2" d="M404,-195.79C404,-159.79 404,-83 404,-83 404,-83 863.39,-83 863.39,-83"/>
<polygon fill="#475569" stroke="#475569" stroke-width="1.2" points="863.39,-85.8 871.39,-83 863.39,-80.2 863.39,-85.8"/>
<text text-anchor="middle" x="618" y="-86" font-family="Helvetica,sans-Serif" font-size="10.00">artifact</text>
</g>
<!-- B -->
<g id="node5" class="node">
<title>B</title>
<path fill="none" stroke="#334155" d="M741,-232C741,-232 673,-232 673,-232 667,-232 661,-226 661,-220 661,-220 661,-208 661,-208 661,-202 667,-196 673,-196 673,-196 741,-196 741,-196 747,-196 753,-202 753,-208 753,-208 753,-220 753,-220 753,-226 747,-232 741,-232"/>
<text text-anchor="middle" x="707" y="-210.9" font-family="Helvetica,sans-Serif" font-size="12.00">Build / Code</text>
</g>
<!-- P&#45;&gt;B -->
<g id="edge2" class="edge">
<title>P&#45;&gt;B</title>
<path fill="none" stroke="#475569" stroke-width="1.2" d="M575.33,-214C575.33,-214 652.75,-214 652.75,-214"/>
<polygon fill="#475569" stroke="#475569" stroke-width="1.2" points="652.75,-216.8 660.75,-214 652.75,-211.2 652.75,-216.8"/>
</g>
<!-- PArt -->
<g id="node8" class="node">
<title>PArt</title>
<path fill="none" stroke="#334155" d="M977,-174C977,-174 907,-174 907,-174 901,-174 895,-168 895,-162 895,-162 895,-150 895,-150 895,-144 901,-138 907,-138 907,-138 977,-138 977,-138 983,-138 989,-144 989,-150 989,-150 989,-162 989,-162 989,-168 983,-174 977,-174"/>
<text text-anchor="middle" x="942" y="-152.9" font-family="Helvetica,sans-Serif" font-size="12.00">Plan Artifact</text>
</g>
<!-- P&#45;&gt;PArt -->
<g id="edge7" class="edge">
<title>P&#45;&gt;PArt</title>
<path fill="none" stroke="#475569" stroke-width="1.2" stroke-dasharray="5,2" d="M548,-195.9C548,-183.58 548,-169.5 548,-169.5 548,-169.5 886.87,-169.5 886.87,-169.5"/>
<polygon fill="#475569" stroke="#475569" stroke-width="1.2" points="886.87,-172.3 894.87,-169.5 886.87,-166.7 886.87,-172.3"/>
<text text-anchor="middle" x="707" y="-159" font-family="Helvetica,sans-Serif" font-size="10.00">artifact</text>
</g>
<!-- CArt -->
<g id="node9" class="node">
<title>CArt</title>
<path fill="none" stroke="#334155" d="M1033,-239C1033,-239 851,-239 851,-239 845,-239 839,-233 839,-227 839,-227 839,-215 839,-215 839,-209 845,-203 851,-203 851,-203 1033,-203 1033,-203 1039,-203 1045,-209 1045,-215 1045,-215 1045,-227 1045,-227 1045,-233 1039,-239 1033,-239"/>
<text text-anchor="middle" x="942" y="-217.9" font-family="Helvetica,sans-Serif" font-size="12.00">Implementation / Code Artifact</text>
</g>
<!-- B&#45;&gt;CArt -->
<g id="edge8" class="edge">
<title>B&#45;&gt;CArt</title>
<path fill="none" stroke="#475569" stroke-width="1.2" stroke-dasharray="5,2" d="M753.15,-217.5C753.15,-217.5 830.58,-217.5 830.58,-217.5"/>
<polygon fill="#475569" stroke="#475569" stroke-width="1.2" points="830.58,-220.3 838.58,-217.5 830.58,-214.7 830.58,-220.3"/>
<text text-anchor="middle" x="796" y="-224" font-family="Helvetica,sans-Serif" font-size="10.00">artifact</text>
</g>
</g>
</svg>
