<?xml version="1.0" encoding="UTF-8" standalone="no"?>
<!DOCTYPE svg PUBLIC "-//W3C//DTD SVG 1.1//EN"
 "http://www.w3.org/Graphics/SVG/1.1/DTD/svg11.dtd">
<!-- Generated by graphviz version 2.42.4 (0)
 -->
<!-- Title: G Pages: 1 -->
<svg width="682pt" height="226pt"
 viewBox="0.00 0.00 682.00 226.00" xmlns="http://www.w3.org/2000/svg" xmlns:xlink="http://www.w3.org/1999/xlink">
<g id="graph0" class="graph" transform="scale(1 1) rotate(0) translate(18 208)">
<title>G</title>
<polygon fill="white" stroke="transparent" points="-18,18 -18,-208 664,-208 664,18 -18,18"/>
<!-- U -->
<g id="node1" class="node">
<title>U</title>
<path fill="none" stroke="#334155" d="M169,-74C169,-74 12,-74 12,-74 6,-74 0,-68 0,-62 0,-62 0,-50 0,-50 0,-44 6,-38 12,-38 12,-38 169,-38 169,-38 175,-38 181,-44 181,-50 181,-50 181,-62 181,-62 181,-68 175,-74 169,-74"/>
<text text-anchor="middle" x="90.5" y="-52.9" font-family="Helvetica,sans-Serif" font-size="12.00">User Intent / Work Request</text>
</g>
<!-- PR -->
<g id="node2" class="node">
<title>PR</title>
<path fill="none" stroke="#334155" d="M365,-150C365,-150 269,-150 269,-150 263,-150 257,-144 257,-138 257,-138 257,-126 257,-126 257,-120 263,-114 269,-114 269,-114 365,-114 365,-114 371,-114 377,-120 377,-126 377,-126 377,-138 377,-138 377,-144 371,-150 365,-150"/>
<text text-anchor="middle" x="317" y="-128.9" font-family="Helvetica,sans-Serif" font-size="12.00">Pattern Retrieval</text>
</g>
<!-- U&#45;&gt;PR -->
<g id="edge1" class="edge">
<title>U&#45;&gt;PR</title>
<path fill="none" stroke="#475569" stroke-width="1.2" d="M163,-74.03C163,-94.77 163,-126 163,-126 163,-126 248.58,-126 248.58,-126"/>
<polygon fill="#475569" stroke="#475569" stroke-width="1.2" points="248.58,-128.8 256.58,-126 248.58,-123.2 248.58,-128.8"/>
</g>
<!-- AR -->
<g id="node3" class="node">
<title>AR</title>
<path fill="none" stroke="#334155" d="M383,-74C383,-74 251,-74 251,-74 245,-74 239,-68 239,-62 239,-62 239,-50 239,-50 239,-44 245,-38 251,-38 251,-38 383,-38 383,-38 389,-38 395,-44 395,-50 395,-50 395,-62 395,-62 395,-68 389,-74 383,-74"/>
<text text-anchor="middle" x="317" y="-52.9" font-family="Helvetica,sans-Serif" font-size="12.00">Ask / Context Retrieval</text>
</g>
<!-- U&#45;&gt;AR -->
<g id="edge2" class="edge">
<title>U&#45;&gt;AR</title>
<path fill="none" stroke="#475569" stroke-width="1.2" d="M181.32,-56C181.32,-56 230.92,-56 230.92,-56"/>
<polygon fill="#475569" stroke="#475569" stroke-width="1.2" points="230.92,-58.8 238.92,-56 230.92,-53.2 230.92,-58.8"/>
</g>
<!-- RA -->
<g id="node5" class="node">
<title>RA</title>
<path fill="none" stroke="#334155" d="M634,-112C634,-112 465,-112 465,-112 459,-112 453,-106 453,-100 453,-100 453,-88 453,-88 453,-82 459,-76 465,-76 465,-76 634,-76 634,-76 640,-76 646,-82 646,-88 646,-88 646,-100 646,-100 646,-106 640,-112 634,-112"/>
<text text-anchor="middle" x="549.5" y="-90.9" font-family="Helvetica,sans-Serif" font-size="12.00">Reference Architecture State</text>
</g>
<!-- PR&#45;&gt;RA -->
<g id="edge4" class="edge">
<title>PR&#45;&gt;RA</title>
<path fill="none" stroke="#475569" stroke-width="1.2" d="M377.23,-132C417.44,-132 463,-132 463,-132 463,-132 463,-120.11 463,-120.11"/>
<polygon fill="#475569" stroke="#475569" stroke-width="1.2" points="465.8,-120.11 463,-112.11 460.2,-120.11 465.8,-120.11"/>
</g>
<!-- O1 -->
<g id="node6" class="node">
<title>O1</title>
<path fill="none" stroke="#334155" d="M614,-190C614,-190 485,-190 485,-190 479,-190 473,-184 473,-178 473,-178 473,-164 473,-164 473,-158 479,-152 485,-152 485,-152 614,-152 614,-152 620,-152 626,-158 626,-164 626,-164 626,-178 626,-178 626,-184 620,-190 614,-190"/>
<text text-anchor="middle" x="549.5" y="-174.4" font-family="Helvetica,sans-Serif" font-size="12.00">Architecture Structure</text>
<text text-anchor="middle" x="549.5" y="-161.4" font-family="Helvetica,sans-Serif" font-size="12.00">and Obligations</text>
</g>
<!-- PR&#45;&gt;O1 -->
<g id="edge5" class="edge">
<title>PR&#45;&gt;O1</title>
<path fill="none" stroke="#475569" stroke-width="1.2" d="M317,-150.13C317,-160.31 317,-171 317,-171 317,-171 464.73,-171 464.73,-171"/>
<polygon fill="#475569" stroke="#475569" stroke-width="1.2" points="464.73,-173.8 472.73,-171 464.73,-168.2 464.73,-173.8"/>
</g>
<!-- O2 -->
<g id="node7" class="node">
<title>O2</title>
<path fill="none" stroke="#334155" d="M614.5,-36C614.5,-36 484.5,-36 484.5,-36 478.5,-36 472.5,-30 472.5,-24 472.5,-24 472.5,-12 472.5,-12 472.5,-6 478.5,0 484.5,0 484.5,0 614.5,0 614.5,0 620.5,0 626.5,-6 626.5,-12 626.5,-12 626.5,-24 626.5,-24 626.5,-30 620.5,-36 614.5,-36"/>
<text text-anchor="middle" x="549.5" y="-14.9" font-family="Helvetica,sans-Serif" font-size="12.00">Context Pack / Answer</text>
</g>
<!-- AR&#45;&gt;O2 -->
<g id="edge8" class="edge">
<title>AR&#45;&gt;O2</title>
<path fill="none" stroke="#475569" stroke-width="1.2" d="M395.23,-56C462.92,-56 550,-56 550,-56 550,-56 550,-44.11 550,-44.11"/>
<polygon fill="#475569" stroke="#475569" stroke-width="1.2" points="552.8,-44.11 550,-36.11 547.2,-44.11 552.8,-44.11"/>
</g>
<!-- PL -->
<g id="node4" class="node">
<title>PL</title>
<path fill="none" stroke="#334155" d="M133,-150C133,-150 48,-150 48,-150 42,-150 36,-144 36,-138 36,-138 36,-126 36,-126 36,-120 42,-114 48,-114 48,-114 133,-114 133,-114 139,-114 145,-120 145,-126 145,-126 145,-138 145,-138 145,-144 139,-150 133,-150"/>
<text text-anchor="middle" x="90.5" y="-128.9" font-family="Helvetica,sans-Serif" font-size="12.00">Pattern Library</text>
</g>
<!-- PL&#45;&gt;PR -->
<g id="edge3" class="edge">
<title>PL&#45;&gt;PR</title>
<path fill="none" stroke="#475569" stroke-width="1.2" d="M145.04,-138C145.04,-138 248.96,-138 248.96,-138"/>
<polygon fill="#475569" stroke="#475569" stroke-width="1.2" points="248.96,-140.8 256.96,-138 248.96,-135.2 248.96,-140.8"/>
</g>
<!-- RA&#45;&gt;AR -->
<g id="edge7" class="edge">
<title>RA&#45;&gt;AR</title>
<path fill="none" stroke="#475569" stroke-width="1.2" d="M452.97,-94C417.57,-94 386,-94 386,-94 386,-94 386,-82.11 386,-82.11"/>
<polygon fill="#475569" stroke="#475569" stroke-width="1.2" points="388.8,-82.11 386,-74.11 383.2,-82.11 388.8,-82.11"/>
</g>
<!-- O1&#45;&gt;RA -->
<g id="edge6" class="edge">
<title>O1&#45;&gt;RA</title>
<path fill="none" stroke="#475569" stroke-width="1.2" d="M550,-151.97C550,-151.97 550,-120.02 550,-120.02"/>
<polygon fill="#475569" stroke="#475569" stroke-width="1.2" points="552.8,-120.02 550,-112.02 547.2,-120.02 552.8,-120.02"/>
</g>
</g>
</svg>
