<?xml version="1.0" encoding="UTF-8" standalone="no"?>
<!DOCTYPE svg PUBLIC "-//W3C//DTD SVG 1.1//EN"
 "http://www.w3.org/Graphics/SVG/1.1/DTD/svg11.dtd">
<!-- Generated by graphviz version 2.42.4 (0)
 -->
<!-- Title: G Pages: 1 -->
<svg width="1599pt" height="306pt"
 viewBox="0.00 0.00 1599.00 306.00" xmlns="http://www.w3.org/2000/svg" xmlns:xlink="http://www.w3.org/1999/xlink">
<g id="graph0" class="graph" transform="scale(1 1) rotate(0) translate(18 288)">
<title>G</title>
<polygon fill="white" stroke="transparent" points="-18,18 -18,-288 1581,-288 1581,18 -18,18"/>
<!-- H -->
<g id="node1" class="node">
<title>H</title>
<path fill="none" stroke="#334155" d="M160,-36C160,-36 12,-36 12,-36 6,-36 0,-30 0,-24 0,-24 0,-12 0,-12 0,-6 6,0 12,0 12,0 160,0 160,0 166,0 172,-6 172,-12 172,-12 172,-24 172,-24 172,-30 166,-36 160,-36"/>
<text text-anchor="middle" x="86" y="-14.9" font-family="Helvetica,sans-Serif" font-size="12.00">Human / Architect / Team</text>
</g>
<!-- CS -->
<g id="node2" class="node">
<title>CS</title>
<path fill="none" stroke="#334155" d="M381,-153C381,-153 245,-153 245,-153 239,-153 233,-147 233,-141 233,-141 233,-129 233,-129 233,-123 239,-117 245,-117 245,-117 381,-117 381,-117 387,-117 393,-123 393,-129 393,-129 393,-141 393,-141 393,-147 387,-153 381,-153"/>
<text text-anchor="middle" x="313" y="-131.9" font-family="Helvetica,sans-Serif" font-size="12.00">CAF Command Surface</text>
</g>
<!-- H&#45;&gt;CS -->
<g id="edge1" class="edge">
<title>H&#45;&gt;CS</title>
<path fill="none" stroke="#475569" stroke-width="1.2" d="M172.14,-27C236.36,-27 313,-27 313,-27 313,-27 313,-108.68 313,-108.68"/>
<polygon fill="#475569" stroke="#475569" stroke-width="1.2" points="310.2,-108.68 313,-116.68 315.8,-108.68 310.2,-108.68"/>
</g>
<!-- AQ -->
<g id="node3" class="node">
<title>AQ</title>
<path fill="none" stroke="#334155" d="M1009,-36C1009,-36 893,-36 893,-36 887,-36 881,-30 881,-24 881,-24 881,-12 881,-12 881,-6 887,0 893,0 893,0 1009,0 1009,0 1015,0 1021,-6 1021,-12 1021,-12 1021,-24 1021,-24 1021,-30 1015,-36 1009,-36"/>
<text text-anchor="middle" x="951" y="-14.9" font-family="Helvetica,sans-Serif" font-size="12.00">Ask / Query Surface</text>
</g>
<!-- H&#45;&gt;AQ -->
<g id="edge2" class="edge">
<title>H&#45;&gt;AQ</title>
<path fill="none" stroke="#475569" stroke-width="1.2" d="M172.1,-9C172.1,-9 872.91,-9 872.91,-9"/>
<polygon fill="#475569" stroke="#475569" stroke-width="1.2" points="872.91,-11.8 880.91,-9 872.91,-6.2 872.91,-11.8"/>
</g>
<!-- IS -->
<g id="node4" class="node">
<title>IS</title>
<path fill="none" stroke="#334155" d="M576,-187C576,-187 466,-187 466,-187 460,-187 454,-181 454,-175 454,-175 454,-163 454,-163 454,-157 460,-151 466,-151 466,-151 576,-151 576,-151 582,-151 588,-157 588,-163 588,-163 588,-175 588,-175 588,-181 582,-187 576,-187"/>
<text text-anchor="middle" x="521" y="-165.9" font-family="Helvetica,sans-Serif" font-size="12.00">CAF Instance State</text>
</g>
<!-- CS&#45;&gt;IS -->
<g id="edge3" class="edge">
<title>CS&#45;&gt;IS</title>
<path fill="none" stroke="#475569" stroke-width="1.2" d="M393.06,-142.5C427.94,-142.5 461,-142.5 461,-142.5 461,-142.5 461,-143.34 461,-143.34"/>
<polygon fill="#475569" stroke="#475569" stroke-width="1.2" points="458.2,-142.88 461,-150.88 463.8,-142.88 458.2,-142.88"/>
</g>
<!-- PL -->
<g id="node5" class="node">
<title>PL</title>
<path fill="none" stroke="#334155" d="M563.5,-119C563.5,-119 478.5,-119 478.5,-119 472.5,-119 466.5,-113 466.5,-107 466.5,-107 466.5,-95 466.5,-95 466.5,-89 472.5,-83 478.5,-83 478.5,-83 563.5,-83 563.5,-83 569.5,-83 575.5,-89 575.5,-95 575.5,-95 575.5,-107 575.5,-107 575.5,-113 569.5,-119 563.5,-119"/>
<text text-anchor="middle" x="521" y="-97.9" font-family="Helvetica,sans-Serif" font-size="12.00">Pattern Library</text>
</g>
<!-- CS&#45;&gt;PL -->
<g id="edge4" class="edge">
<title>CS&#45;&gt;PL</title>
<path fill="none" stroke="#475569" stroke-width="1.2" d="M393.12,-123.67C451.72,-123.67 521,-123.67 521,-123.67 521,-123.67 521,-123.23 521,-123.23"/>
<polygon fill="#475569" stroke="#475569" stroke-width="1.2" points="523.8,-127.3 521,-119.3 518.2,-127.3 523.8,-127.3"/>
</g>
<!-- AQ&#45;&gt;H -->
<g id="edge12" class="edge">
<title>AQ&#45;&gt;H</title>
<path fill="none" stroke="#475569" stroke-width="1.2" d="M880.95,-18C880.95,-18 180.19,-18 180.19,-18"/>
<polygon fill="#475569" stroke="#475569" stroke-width="1.2" points="180.19,-15.2 172.19,-18 180.19,-20.8 180.19,-15.2"/>
</g>
<!-- RA -->
<g id="node6" class="node">
<title>RA</title>
<path fill="none" stroke="#334155" d="M795,-119C795,-119 661,-119 661,-119 655,-119 649,-113 649,-107 649,-107 649,-95 649,-95 649,-89 655,-83 661,-83 661,-83 795,-83 795,-83 801,-83 807,-89 807,-95 807,-95 807,-107 807,-107 807,-113 801,-119 795,-119"/>
<text text-anchor="middle" x="728" y="-97.9" font-family="Helvetica,sans-Serif" font-size="12.00">Reference Architecture</text>
</g>
<!-- PL&#45;&gt;RA -->
<g id="edge5" class="edge">
<title>PL&#45;&gt;RA</title>
<path fill="none" stroke="#475569" stroke-width="1.2" d="M575.66,-101C575.66,-101 640.85,-101 640.85,-101"/>
<polygon fill="#475569" stroke="#475569" stroke-width="1.2" points="640.85,-103.8 648.85,-101 640.85,-98.2 640.85,-103.8"/>
</g>
<!-- RA&#45;&gt;AQ -->
<g id="edge11" class="edge">
<title>RA&#45;&gt;AQ</title>
<path fill="none" stroke="#475569" stroke-width="1.2" d="M807.25,-92C871.35,-92 951,-92 951,-92 951,-92 951,-44.29 951,-44.29"/>
<polygon fill="#475569" stroke="#475569" stroke-width="1.2" points="953.8,-44.29 951,-36.29 948.2,-44.29 953.8,-44.29"/>
</g>
<!-- PD -->
<g id="node7" class="node">
<title>PD</title>
<path fill="none" stroke="#334155" d="M1022,-170C1022,-170 880,-170 880,-170 874,-170 868,-164 868,-158 868,-158 868,-146 868,-146 868,-140 874,-134 880,-134 880,-134 1022,-134 1022,-134 1028,-134 1034,-140 1034,-146 1034,-146 1034,-158 1034,-158 1034,-164 1028,-170 1022,-170"/>
<text text-anchor="middle" x="951" y="-148.9" font-family="Helvetica,sans-Serif" font-size="12.00">Planning / Delivery Work</text>
</g>
<!-- RA&#45;&gt;PD -->
<g id="edge6" class="edge">
<title>RA&#45;&gt;PD</title>
<path fill="none" stroke="#475569" stroke-width="1.2" d="M807.09,-110C841.89,-110 875,-110 875,-110 875,-110 875,-125.94 875,-125.94"/>
<polygon fill="#475569" stroke="#475569" stroke-width="1.2" points="872.2,-125.94 875,-133.94 877.8,-125.94 872.2,-125.94"/>
</g>
<!-- G -->
<g id="node9" class="node">
<title>G</title>
<path fill="none" stroke="#334155" d="M1531,-169C1531,-169 1411,-169 1411,-169 1405,-169 1399,-163 1399,-157 1399,-157 1399,-145 1399,-145 1399,-139 1405,-133 1411,-133 1411,-133 1531,-133 1531,-133 1537,-133 1543,-139 1543,-145 1543,-145 1543,-157 1543,-157 1543,-163 1537,-169 1531,-169"/>
<text text-anchor="middle" x="1471" y="-147.9" font-family="Helvetica,sans-Serif" font-size="12.00">Gates / Enforcement</text>
</g>
<!-- RA&#45;&gt;G -->
<g id="edge8" class="edge">
<title>RA&#45;&gt;G</title>
<path fill="none" stroke="#475569" stroke-width="1.2" d="M807.16,-101C998.61,-101 1471,-101 1471,-101 1471,-101 1471,-124.95 1471,-124.95"/>
<polygon fill="#475569" stroke="#475569" stroke-width="1.2" points="1468.2,-124.95 1471,-132.95 1473.8,-124.95 1468.2,-124.95"/>
</g>
<!-- IMPL -->
<g id="node8" class="node">
<title>IMPL</title>
<path fill="none" stroke="#334155" d="M1306,-236C1306,-236 1107,-236 1107,-236 1101,-236 1095,-230 1095,-224 1095,-224 1095,-212 1095,-212 1095,-206 1101,-200 1107,-200 1107,-200 1306,-200 1306,-200 1312,-200 1318,-206 1318,-212 1318,-212 1318,-224 1318,-224 1318,-230 1312,-236 1306,-236"/>
<text text-anchor="middle" x="1206.5" y="-214.9" font-family="Helvetica,sans-Serif" font-size="12.00">Implementation / Running System</text>
</g>
<!-- PD&#45;&gt;IMPL -->
<g id="edge7" class="edge">
<title>PD&#45;&gt;IMPL</title>
<path fill="none" stroke="#475569" stroke-width="1.2" d="M951,-170.03C951,-189.58 951,-218 951,-218 951,-218 1086.81,-218 1086.81,-218"/>
<polygon fill="#475569" stroke="#475569" stroke-width="1.2" points="1086.81,-220.8 1094.81,-218 1086.81,-215.2 1086.81,-220.8"/>
</g>
<!-- PD&#45;&gt;G -->
<g id="edge9" class="edge">
<title>PD&#45;&gt;G</title>
<path fill="none" stroke="#475569" stroke-width="1.2" d="M1034.26,-151.5C1034.26,-151.5 1390.89,-151.5 1390.89,-151.5"/>
<polygon fill="#475569" stroke="#475569" stroke-width="1.2" points="1390.89,-154.3 1398.89,-151.5 1390.89,-148.7 1390.89,-154.3"/>
</g>
<!-- IMPL&#45;&gt;G -->
<g id="edge10" class="edge">
<title>IMPL&#45;&gt;G</title>
<path fill="none" stroke="#475569" stroke-width="1.2" d="M1318.29,-211.33C1390.48,-211.33 1471,-211.33 1471,-211.33 1471,-211.33 1471,-177.1 1471,-177.1"/>
<polygon fill="#475569" stroke="#475569" stroke-width="1.2" points="1473.8,-177.1 1471,-169.1 1468.2,-177.1 1473.8,-177.1"/>
</g>
<!-- FUT -->
<g id="node10" class="node">
<title>FUT</title>
<path fill="none" stroke="#334155" d="M1551,-270C1551,-270 1391,-270 1391,-270 1385,-270 1379,-264 1379,-258 1379,-258 1379,-246 1379,-246 1379,-240 1385,-234 1391,-234 1391,-234 1551,-234 1551,-234 1557,-234 1563,-240 1563,-246 1563,-246 1563,-258 1563,-258 1563,-264 1557,-270 1551,-270"/>
<text text-anchor="middle" x="1471" y="-248.9" font-family="Helvetica,sans-Serif" font-size="12.00">Future Changes / Questions</text>
</g>
<!-- IMPL&#45;&gt;FUT -->
<g id="edge13" class="edge">
<title>IMPL&#45;&gt;FUT</title>
<path fill="none" stroke="#475569" stroke-width="1.2" d="M1318.22,-222.67C1357.94,-222.67 1393,-222.67 1393,-222.67 1393,-222.67 1393,-225.92 1393,-225.92"/>
<polygon fill="#475569" stroke="#475569" stroke-width="1.2" points="1390.2,-225.92 1393,-233.92 1395.8,-225.92 1390.2,-225.92"/>
</g>
<!-- FUT&#45;&gt;CS -->
<g id="edge14" class="edge">
<title>FUT&#45;&gt;CS</title>
<path fill="none" stroke="#475569" stroke-width="1.2" d="M1386,-233.75C1386,-199.35 1386,-128.33 1386,-128.33 1386,-128.33 401.21,-128.33 401.21,-128.33"/>
<polygon fill="#475569" stroke="#475569" stroke-width="1.2" points="401.21,-125.53 393.21,-128.33 401.21,-131.13 401.21,-125.53"/>
</g>
</g>
</svg>
